<svg xmlns="http://www.w3.org/2000/svg" width="705" viewBox="0 0 705 591" height="591" version="1.0"><defs><clipPath id="a"><path d="M 0.59375 0 L 618 0 L 618 514 L 0.59375 514 Z M 0.59375 0"/></clipPath><clipPath id="b"><path d="M 0.59375 0 L 633 0 L 633 529 L 0.59375 529 Z M 0.59375 0"/></clipPath></defs><g clip-path="url(#a)"><path fill="lightcoral" d="M -13.179688 458.117188 C -8.398438 444.394531 -4.675781 433.453125 11.890625 420.394531 C 28.457031 407.339844 39.863281 406.144531 54.425781 404.839844 C 70.960938 403.28125 91.429688 401.222656 116.546875 381.425781 C 141.664062 361.632812 148.453125 342.214844 153.941406 326.636719 C 158.71875 312.914062 162.441406 301.972656 179.007812 288.914062 C 195.578125 275.859375 206.980469 274.664062 221.546875 273.359375 C 237.972656 271.667969 258.441406 269.605469 283.5625 249.8125 C 308.679688 230.019531 315.46875 210.597656 320.953125 195.023438 C 325.734375 181.300781 329.457031 170.355469 346.023438 157.300781 C 362.589844 144.246094 373.996094 143.050781 388.558594 141.746094 C 404.988281 140.054688 425.457031 137.992188 450.574219 118.199219 C 475.695312 98.402344 482.480469 78.984375 487.96875 63.40625 C 492.746094 49.683594 496.46875 38.742188 513.039062 25.6875 C 529.605469 12.628906 541.007812 11.4375 555.574219 10.128906 C 572 8.441406 592.46875 6.378906 617.589844 -13.414062 L 381.699219 -312.753906 L -286.355469 213.703125 L -50.464844 513.039062 C -25.347656 493.246094 -18.558594 473.828125 -13.179688 458.117188 Z M -13.179688 458.117188"/></g><g clip-path="url(#b)"><path fill="#54F0A2" d="M 1.796875 473.089844 C 6.574219 459.367188 10.296875 448.425781 26.867188 435.371094 C 43.433594 422.3125 54.835938 421.121094 69.402344 419.8125 C 85.933594 418.257812 106.402344 416.195312 131.523438 396.402344 C 156.640625 376.605469 163.429688 357.1875 168.914062 341.609375 C 173.695312 327.886719 177.417969 316.945312 193.984375 303.890625 C 210.550781 290.832031 221.957031 289.640625 236.519531 288.332031 C 252.949219 286.640625 273.417969 284.582031 298.535156 264.785156 C 323.65625 244.992188 330.441406 225.574219 335.929688 209.996094 C 340.707031 196.273438 344.429688 185.332031 361 172.277344 C 377.566406 159.21875 388.96875 158.023438 403.535156 156.71875 C 419.960938 155.027344 440.429688 152.96875 465.550781 133.171875 C 490.667969 113.378906 497.457031 93.960938 502.941406 78.382812 C 507.722656 64.660156 511.445312 53.71875 528.011719 40.660156 C 544.578125 27.605469 555.984375 26.410156 570.546875 25.105469 C 586.976562 23.414062 607.445312 21.355469 632.5625 1.558594 L 396.671875 -297.777344 L -271.382812 228.679688 L -35.492188 528.015625 C -10.375 508.21875 -3.585938 488.800781 1.796875 473.089844 Z M 1.796875 473.089844"/></g></svg>