<svg xmlns="http://www.w3.org/2000/svg" width="705" viewBox="0 0 705 591" height="591" version="1.0"><defs><clipPath id="a"><path d="M 73.039062 23.667969 L 631.59375 23.667969 L 631.59375 566.5 L 73.039062 566.5 Z M 73.039062 23.667969"/></clipPath></defs><g clip-path="url(#a)"><path fill="lightcoral" d="M 364.675781 31.558594 C 364.675781 27.226562 361.125 23.667969 356.796875 23.667969 L 226.707031 23.667969 C 222.378906 23.667969 218.828125 27.226562 218.828125 31.558594 C 218.828125 35.886719 222.378906 39.445312 226.707031 39.445312 L 356.953125 39.445312 C 361.277344 39.289062 364.675781 35.886719 364.675781 31.558594 Z M 542.816406 31.558594 C 542.816406 27.226562 539.265625 23.667969 534.9375 23.667969 L 458.769531 23.667969 C 454.441406 23.667969 450.890625 27.226562 450.890625 31.558594 C 450.890625 35.886719 454.441406 39.445312 458.769531 39.445312 L 534.9375 39.445312 C 539.265625 39.445312 542.816406 35.886719 542.816406 31.558594 Z M 440.847656 31.558594 C 440.847656 27.226562 437.292969 23.667969 432.964844 23.667969 L 380.28125 23.667969 C 375.957031 23.667969 372.402344 27.226562 372.402344 31.558594 C 372.402344 35.886719 375.957031 39.445312 380.28125 39.445312 L 432.964844 39.445312 C 437.292969 39.445312 440.847656 35.886719 440.847656 31.558594 Z M 211.875 31.558594 C 211.875 27.226562 208.320312 23.667969 203.992188 23.667969 L 186.378906 23.667969 C 182.054688 23.667969 178.5 27.226562 178.5 31.558594 C 178.5 35.886719 182.054688 39.445312 186.378906 39.445312 L 203.839844 39.445312 C 208.164062 39.445312 211.875 35.886719 211.875 31.558594 Z M 165.675781 31.558594 C 165.675781 27.226562 162.125 23.667969 157.796875 23.667969 L 81.78125 23.667969 C 77.457031 23.667969 73.902344 27.226562 73.902344 31.558594 C 73.902344 35.886719 77.457031 39.445312 81.78125 39.445312 L 157.796875 39.445312 C 162.125 39.445312 165.675781 35.886719 165.675781 31.558594 Z M 377.964844 136.722656 C 377.964844 132.390625 374.410156 128.832031 370.085938 128.832031 L 282.328125 128.832031 C 278 128.832031 274.445312 132.390625 274.445312 136.722656 C 274.445312 141.050781 278 144.609375 282.328125 144.609375 L 370.085938 144.609375 C 374.410156 144.609375 377.964844 141.050781 377.964844 136.722656 Z M 246.019531 136.722656 C 246.019531 132.390625 242.464844 128.832031 238.140625 128.832031 L 185.453125 128.832031 C 181.128906 128.832031 177.574219 132.390625 177.574219 136.722656 C 177.574219 141.050781 181.128906 144.609375 185.453125 144.609375 L 238.140625 144.609375 C 242.464844 144.609375 246.019531 141.050781 246.019531 136.722656 Z M 138.019531 136.722656 C 138.019531 132.390625 134.46875 128.832031 130.140625 128.832031 L 112.683594 128.832031 C 108.355469 128.832031 104.804688 132.390625 104.804688 136.722656 C 104.804688 141.050781 108.355469 144.609375 112.683594 144.609375 L 130.140625 144.609375 C 134.46875 144.609375 138.019531 141.207031 138.019531 136.722656 Z M 90.125 136.722656 C 90.125 132.390625 86.570312 128.832031 82.246094 128.832031 C 77.921875 128.832031 74.367188 132.390625 74.367188 136.722656 C 74.367188 141.050781 77.921875 144.609375 82.246094 144.609375 C 86.570312 144.609375 90.125 141.050781 90.125 136.722656 Z M 453.671875 136.722656 C 453.671875 132.390625 450.117188 128.832031 445.789062 128.832031 L 393.105469 128.832031 C 388.777344 128.832031 385.226562 132.390625 385.226562 136.722656 C 385.226562 141.050781 388.777344 144.609375 393.105469 144.609375 L 445.789062 144.609375 C 450.117188 144.609375 453.671875 141.050781 453.671875 136.722656 Z M 493.839844 136.722656 C 493.839844 132.390625 490.289062 128.832031 485.960938 128.832031 L 468.503906 128.832031 C 464.175781 128.832031 460.621094 132.390625 460.621094 136.722656 C 460.621094 141.050781 464.175781 144.609375 468.503906 144.609375 L 485.960938 144.609375 C 490.289062 144.609375 493.839844 141.050781 493.839844 136.722656 Z M 372.246094 276.835938 C 372.246094 272.507812 368.695312 268.949219 364.367188 268.949219 L 311.683594 268.949219 C 307.355469 268.949219 303.800781 272.507812 303.800781 276.835938 C 303.800781 281.167969 307.355469 284.722656 311.683594 284.722656 L 364.367188 284.722656 C 368.695312 284.722656 372.246094 281.167969 372.246094 276.835938 Z M 258.996094 276.835938 C 258.996094 272.507812 255.445312 268.949219 251.117188 268.949219 L 198.433594 268.949219 C 194.105469 268.949219 190.550781 272.507812 190.550781 276.835938 C 190.550781 281.167969 194.105469 284.722656 198.433594 284.722656 L 251.117188 284.722656 C 255.445312 284.722656 258.996094 281.167969 258.996094 276.835938 Z M 295.304688 276.835938 C 295.304688 272.507812 291.75 268.949219 287.425781 268.949219 L 275.683594 268.949219 C 271.355469 268.949219 267.804688 272.507812 267.804688 276.835938 C 267.804688 281.167969 271.355469 284.722656 275.683594 284.722656 L 287.425781 284.722656 C 291.75 284.722656 295.304688 281.167969 295.304688 276.835938 Z M 99.550781 276.835938 C 99.550781 272.507812 95.996094 268.949219 91.671875 268.949219 C 87.34375 268.949219 83.792969 272.507812 83.792969 276.835938 C 83.792969 281.167969 87.34375 284.722656 91.671875 284.722656 C 95.996094 284.722656 99.550781 281.167969 99.550781 276.835938 Z M 453.671875 276.835938 C 453.671875 272.507812 450.117188 268.949219 445.789062 268.949219 L 393.105469 268.949219 C 388.777344 268.949219 385.226562 272.507812 385.226562 276.835938 C 385.226562 281.167969 388.777344 284.722656 393.105469 284.722656 L 445.789062 284.722656 C 450.117188 284.722656 453.671875 281.167969 453.671875 276.835938 Z M 493.839844 276.835938 C 493.839844 272.507812 490.289062 268.949219 485.960938 268.949219 L 468.503906 268.949219 C 464.175781 268.949219 460.621094 272.507812 460.621094 276.835938 C 460.621094 281.167969 464.175781 284.722656 468.503906 284.722656 L 485.960938 284.722656 C 490.289062 284.722656 493.839844 281.167969 493.839844 276.835938 Z M 172.011719 276.835938 C 172.011719 272.507812 168.457031 268.949219 164.132812 268.949219 L 146.671875 268.949219 C 142.347656 268.949219 138.792969 272.507812 138.792969 276.835938 C 138.792969 281.167969 142.347656 284.722656 146.671875 284.722656 L 164.132812 284.722656 C 168.457031 284.722656 172.011719 281.167969 172.011719 276.835938 Z M 250.5 347.203125 C 250.5 342.875 246.945312 339.316406 242.621094 339.316406 L 143.121094 339.316406 C 138.792969 339.316406 135.242188 342.875 135.242188 347.203125 C 135.242188 351.535156 138.792969 355.089844 143.121094 355.089844 L 242.621094 355.089844 C 246.945312 354.9375 250.5 351.535156 250.5 347.203125 Z M 377.964844 347.203125 C 377.964844 342.875 374.410156 339.316406 370.085938 339.316406 L 305.65625 339.316406 C 301.332031 339.316406 297.777344 342.875 297.777344 347.203125 C 297.777344 351.535156 301.332031 355.089844 305.65625 355.089844 L 370.085938 355.089844 C 374.410156 354.9375 377.964844 351.535156 377.964844 347.203125 Z M 95.222656 347.203125 C 95.222656 342.875 91.671875 339.316406 87.34375 339.316406 C 83.019531 339.316406 79.464844 342.875 79.464844 347.203125 C 79.464844 351.535156 83.019531 355.089844 87.34375 355.089844 C 91.671875 355.089844 95.222656 351.535156 95.222656 347.203125 Z M 445.945312 347.203125 C 445.945312 342.875 442.390625 339.316406 438.066406 339.316406 L 391.25 339.316406 C 386.925781 339.316406 383.371094 342.875 383.371094 347.203125 C 383.371094 351.535156 386.925781 355.089844 391.25 355.089844 L 438.066406 355.089844 C 442.390625 354.9375 445.945312 351.535156 445.945312 347.203125 Z M 494.921875 347.203125 C 494.921875 342.875 491.367188 339.316406 487.042969 339.316406 L 469.582031 339.316406 C 465.257812 339.316406 461.703125 342.875 461.703125 347.203125 C 461.703125 351.535156 465.257812 355.089844 469.582031 355.089844 L 487.042969 355.089844 C 491.367188 354.9375 494.921875 351.535156 494.921875 347.203125 Z M 330.066406 382.15625 C 330.066406 377.824219 326.515625 374.269531 322.1875 374.269531 L 281.246094 374.269531 C 276.917969 374.269531 273.367188 377.824219 273.367188 382.15625 C 273.367188 386.484375 276.917969 390.042969 281.246094 390.042969 L 322.1875 390.042969 C 326.515625 390.042969 330.066406 386.484375 330.066406 382.15625 Z M 255.445312 382.15625 C 255.445312 377.824219 251.890625 374.269531 247.5625 374.269531 L 194.878906 374.269531 C 190.550781 374.269531 187 377.824219 187 382.15625 C 187 386.484375 190.550781 390.042969 194.878906 390.042969 L 247.5625 390.042969 C 251.890625 390.042969 255.445312 386.484375 255.445312 382.15625 Z M 138.019531 382.15625 C 138.019531 377.824219 134.46875 374.269531 130.140625 374.269531 L 112.683594 374.269531 C 108.355469 374.269531 104.804688 377.824219 104.804688 382.15625 C 104.804688 386.484375 108.355469 390.042969 112.683594 390.042969 L 130.140625 390.042969 C 134.46875 390.042969 138.019531 386.640625 138.019531 382.15625 Z M 169.078125 382.15625 C 169.078125 377.824219 165.523438 374.269531 161.195312 374.269531 L 149.453125 374.269531 C 145.128906 374.269531 141.574219 377.824219 141.574219 382.15625 C 141.574219 386.484375 145.128906 390.042969 149.453125 390.042969 L 161.195312 390.042969 C 165.523438 390.042969 169.078125 386.484375 169.078125 382.15625 Z M 431.578125 382.308594 C 431.578125 377.980469 428.023438 374.421875 423.695312 374.421875 L 371.011719 374.421875 C 366.683594 374.421875 363.132812 377.980469 363.132812 382.308594 C 363.132812 386.640625 366.683594 390.195312 371.011719 390.195312 L 423.695312 390.195312 C 428.023438 390.195312 431.578125 386.640625 431.578125 382.308594 Z M 530.921875 382.15625 C 530.921875 377.824219 527.367188 374.269531 523.042969 374.269531 L 482.097656 374.269531 C 477.773438 374.269531 474.21875 377.824219 474.21875 382.15625 C 474.21875 386.484375 477.773438 390.042969 482.097656 390.042969 L 523.042969 390.042969 C 527.367188 390.042969 530.921875 386.484375 530.921875 382.15625 Z M 359.113281 66.664062 C 359.113281 62.332031 355.5625 58.777344 351.234375 58.777344 L 275.21875 58.777344 C 270.894531 58.777344 267.339844 62.332031 267.339844 66.664062 C 267.339844 70.992188 270.894531 74.550781 275.21875 74.550781 L 351.390625 74.550781 C 355.714844 74.394531 359.113281 70.992188 359.113281 66.664062 Z M 420.296875 66.664062 C 420.296875 62.332031 416.742188 58.777344 412.417969 58.777344 L 394.960938 58.777344 C 390.632812 58.777344 387.078125 62.332031 387.078125 66.664062 C 387.078125 70.992188 390.632812 74.550781 394.960938 74.550781 L 412.417969 74.550781 C 416.742188 74.550781 420.296875 70.992188 420.296875 66.664062 Z M 218.828125 66.664062 C 218.828125 62.332031 215.273438 58.777344 210.945312 58.777344 L 193.488281 58.777344 C 189.160156 58.777344 185.609375 62.332031 185.609375 66.664062 C 185.609375 70.992188 189.160156 74.550781 193.488281 74.550781 L 210.945312 74.550781 C 215.273438 74.550781 218.828125 70.992188 218.828125 66.664062 Z M 250.960938 66.664062 C 250.960938 62.332031 247.410156 58.777344 243.082031 58.777344 L 231.339844 58.777344 C 227.015625 58.777344 223.460938 62.332031 223.460938 66.664062 C 223.460938 70.992188 227.015625 74.550781 231.339844 74.550781 L 243.082031 74.550781 C 247.410156 74.550781 250.960938 70.992188 250.960938 66.664062 Z M 494.769531 66.664062 C 494.769531 62.332031 491.214844 58.777344 486.886719 58.777344 L 434.203125 58.777344 C 429.875 58.777344 426.324219 62.332031 426.324219 66.664062 C 426.324219 70.992188 429.875 74.550781 434.203125 74.550781 L 486.886719 74.550781 C 491.214844 74.550781 494.769531 70.992188 494.769531 66.664062 Z M 155.789062 66.664062 C 155.789062 62.332031 152.234375 58.777344 147.910156 58.777344 L 83.480469 58.777344 C 79.15625 58.777344 75.601562 62.332031 75.601562 66.664062 C 75.601562 70.992188 79.15625 74.550781 83.480469 74.550781 L 147.910156 74.550781 C 152.234375 74.550781 155.789062 70.992188 155.789062 66.664062 Z M 298.703125 206.777344 C 298.703125 202.449219 295.152344 198.890625 290.824219 198.890625 L 273.367188 198.890625 C 269.039062 198.890625 265.484375 202.449219 265.484375 206.777344 C 265.484375 211.109375 269.039062 214.664062 273.367188 214.664062 L 290.824219 214.664062 C 295.152344 214.664062 298.703125 211.109375 298.703125 206.777344 Z M 206.929688 206.777344 C 206.929688 202.449219 203.375 198.890625 199.050781 198.890625 L 146.363281 198.890625 C 142.039062 198.890625 138.484375 202.449219 138.484375 206.777344 C 138.484375 211.109375 142.039062 214.664062 146.363281 214.664062 L 199.050781 214.664062 C 203.375 214.664062 206.929688 211.109375 206.929688 206.777344 Z M 422.460938 206.777344 C 422.460938 202.449219 418.90625 198.890625 414.582031 198.890625 L 322.035156 198.890625 C 317.707031 198.890625 314.15625 202.449219 314.15625 206.777344 C 314.15625 211.109375 317.707031 214.664062 322.035156 214.664062 L 414.582031 214.664062 C 418.90625 214.664062 422.460938 211.261719 422.460938 206.777344 C 422.460938 206.933594 422.460938 206.777344 422.460938 206.777344 Z M 239.21875 206.777344 C 239.21875 202.449219 235.667969 198.890625 231.339844 198.890625 C 227.015625 198.890625 223.460938 202.449219 223.460938 206.777344 C 223.460938 211.109375 227.015625 214.664062 231.339844 214.664062 C 235.667969 214.664062 239.21875 211.109375 239.21875 206.777344 Z M 494.921875 206.777344 C 494.921875 202.449219 491.367188 198.890625 487.042969 198.890625 L 469.582031 198.890625 C 465.257812 198.890625 461.703125 202.449219 461.703125 206.777344 C 461.703125 211.109375 465.257812 214.664062 469.582031 214.664062 L 487.042969 214.664062 C 491.367188 214.664062 494.921875 211.109375 494.921875 206.777344 Z M 107.429688 206.777344 C 107.429688 202.449219 103.875 198.890625 99.550781 198.890625 L 82.089844 198.890625 C 77.765625 198.890625 74.210938 202.449219 74.210938 206.777344 C 74.210938 211.109375 77.765625 214.664062 82.089844 214.664062 L 99.550781 214.664062 C 103.875 214.664062 107.429688 211.109375 107.429688 206.777344 Z M 122.261719 487.472656 C 122.261719 483.144531 118.707031 479.585938 114.382812 479.585938 L 85.179688 479.585938 C 80.855469 479.585938 77.300781 483.144531 77.300781 487.472656 C 77.300781 491.804688 80.855469 495.359375 85.179688 495.359375 L 114.382812 495.359375 C 118.707031 495.359375 122.261719 491.804688 122.261719 487.472656 Z M 243.390625 487.472656 C 243.390625 483.144531 239.839844 479.585938 235.511719 479.585938 L 182.828125 479.585938 C 178.5 479.585938 174.949219 483.144531 174.949219 487.472656 C 174.949219 491.804688 178.5 495.359375 182.828125 495.359375 L 235.511719 495.359375 C 239.839844 495.359375 243.390625 491.804688 243.390625 487.472656 Z M 382.445312 487.472656 C 382.445312 483.144531 378.890625 479.585938 374.566406 479.585938 L 321.878906 479.585938 C 317.554688 479.585938 314 483.144531 314 487.472656 C 314 491.804688 317.554688 495.359375 321.878906 495.359375 L 374.566406 495.359375 C 378.890625 495.359375 382.445312 491.804688 382.445312 487.472656 Z M 434.820312 487.472656 C 434.820312 483.144531 431.265625 479.585938 426.941406 479.585938 L 409.480469 479.585938 C 405.15625 479.585938 401.601562 483.144531 401.601562 487.472656 C 401.601562 491.804688 405.15625 495.359375 409.480469 495.359375 L 426.941406 495.359375 C 431.265625 495.359375 434.820312 491.804688 434.820312 487.472656 Z M 489.207031 487.472656 C 489.207031 483.144531 485.652344 479.585938 481.324219 479.585938 C 477 479.585938 473.445312 483.144531 473.445312 487.472656 C 473.445312 491.804688 477 495.359375 481.324219 495.359375 C 485.652344 495.359375 489.207031 491.804688 489.207031 487.472656 Z M 367.921875 452.367188 C 367.921875 448.039062 364.367188 444.480469 360.042969 444.480469 L 307.355469 444.480469 C 303.03125 444.480469 299.476562 448.035156 299.476562 452.367188 C 299.476562 456.699219 303.03125 460.253906 307.355469 460.253906 L 360.042969 460.253906 C 364.367188 460.253906 367.921875 456.699219 367.921875 452.367188 Z M 259.925781 452.367188 C 259.925781 448.039062 256.371094 444.480469 252.042969 444.480469 L 234.585938 444.480469 C 230.257812 444.480469 226.707031 448.035156 226.707031 452.367188 C 226.707031 456.699219 230.257812 460.253906 234.585938 460.253906 L 252.042969 460.253906 C 256.371094 460.253906 259.925781 456.699219 259.925781 452.367188 Z M 290.824219 452.367188 C 290.824219 448.039062 287.269531 444.480469 282.945312 444.480469 L 271.203125 444.480469 C 266.875 444.480469 263.324219 448.035156 263.324219 452.367188 C 263.324219 456.699219 266.875 460.253906 271.203125 460.253906 L 282.945312 460.253906 C 287.269531 460.253906 290.824219 456.851562 290.824219 452.367188 Z M 95.070312 452.367188 C 95.070312 448.039062 91.515625 444.480469 87.191406 444.480469 C 82.863281 444.480469 79.308594 448.035156 79.308594 452.367188 C 79.308594 456.699219 82.863281 460.253906 87.191406 460.253906 C 91.515625 460.253906 95.070312 456.851562 95.070312 452.367188 C 95.070312 452.523438 95.070312 452.367188 95.070312 452.367188 Z M 449.191406 452.367188 C 449.191406 448.039062 445.636719 444.480469 441.308594 444.480469 L 388.625 444.480469 C 384.296875 444.480469 380.746094 448.035156 380.746094 452.367188 C 380.746094 456.699219 384.296875 460.253906 388.625 460.253906 L 441.308594 460.253906 C 445.636719 460.253906 449.191406 456.699219 449.191406 452.367188 Z M 489.359375 452.367188 C 489.359375 448.039062 485.808594 444.480469 481.480469 444.480469 L 464.023438 444.480469 C 459.695312 444.480469 456.140625 448.035156 456.140625 452.367188 C 456.140625 456.699219 459.695312 460.253906 464.023438 460.253906 L 481.480469 460.253906 C 485.808594 460.253906 489.359375 456.851562 489.359375 452.367188 C 489.359375 452.523438 489.359375 452.367188 489.359375 452.367188 Z M 189.007812 452.367188 C 189.007812 448.039062 185.453125 444.480469 181.128906 444.480469 C 176.800781 444.480469 173.246094 448.035156 173.246094 452.367188 C 173.246094 456.699219 176.800781 460.253906 181.128906 460.253906 C 185.453125 460.253906 189.007812 456.699219 189.007812 452.367188 Z M 138.640625 452.367188 C 138.640625 448.039062 135.085938 444.480469 130.761719 444.480469 L 113.300781 444.480469 C 108.976562 444.480469 105.421875 448.035156 105.421875 452.367188 C 105.421875 456.699219 108.976562 460.253906 113.300781 460.253906 L 130.761719 460.253906 C 135.085938 460.253906 138.640625 456.699219 138.640625 452.367188 Z M 360.351562 417.414062 C 360.351562 413.085938 356.796875 409.527344 352.472656 409.527344 L 259.925781 409.527344 C 255.597656 409.527344 252.042969 413.085938 252.042969 417.414062 C 252.042969 421.746094 255.597656 425.304688 259.925781 425.304688 L 352.472656 425.304688 C 356.796875 425.304688 360.351562 421.746094 360.351562 417.414062 Z M 200.75 417.414062 C 200.75 413.085938 197.195312 409.527344 192.871094 409.527344 C 188.542969 409.527344 184.988281 413.085938 184.988281 417.414062 C 184.988281 421.746094 188.542969 425.304688 192.871094 425.304688 C 197.195312 425.304688 200.75 421.746094 200.75 417.414062 Z M 477.773438 417.414062 C 477.773438 413.085938 474.21875 409.527344 469.894531 409.527344 L 400.832031 409.527344 C 396.503906 409.527344 392.949219 413.085938 392.949219 417.414062 C 392.949219 421.746094 396.503906 425.304688 400.832031 425.304688 L 469.894531 425.304688 C 474.21875 425.304688 477.773438 421.746094 477.773438 417.414062 Z M 158.570312 417.414062 C 158.570312 413.085938 155.015625 409.527344 150.691406 409.527344 L 81.628906 409.527344 C 77.300781 409.527344 73.75 413.085938 73.75 417.414062 C 73.75 421.746094 77.300781 425.304688 81.628906 425.304688 L 150.691406 425.304688 C 155.015625 425.304688 158.570312 421.746094 158.570312 417.414062 Z M 375.492188 241.886719 C 375.492188 237.554688 371.9375 233.996094 367.613281 233.996094 L 275.21875 233.996094 C 270.894531 233.996094 267.339844 237.554688 267.339844 241.886719 C 267.339844 246.214844 270.894531 249.773438 275.21875 249.773438 L 367.765625 249.773438 C 372.09375 249.617188 375.492188 246.214844 375.492188 241.886719 Z M 205.074219 241.886719 C 205.074219 237.554688 201.523438 233.996094 197.195312 233.996094 C 192.871094 233.996094 189.316406 237.554688 189.316406 241.886719 C 189.316406 246.214844 192.871094 249.773438 197.195312 249.773438 C 201.523438 249.617188 205.074219 246.214844 205.074219 241.886719 Z M 489.207031 241.886719 C 489.207031 237.554688 485.652344 233.996094 481.324219 233.996094 L 412.261719 233.996094 C 407.9375 233.996094 404.382812 237.554688 404.382812 241.886719 C 404.382812 246.214844 407.9375 249.773438 412.261719 249.773438 L 481.324219 249.773438 C 485.652344 249.617188 489.207031 246.214844 489.207031 241.886719 Z M 162.894531 241.886719 C 162.894531 237.554688 159.34375 233.996094 155.015625 233.996094 L 85.953125 233.996094 C 81.628906 233.996094 78.074219 237.554688 78.074219 241.886719 C 78.074219 246.214844 81.628906 249.773438 85.953125 249.773438 L 155.015625 249.773438 C 159.34375 249.617188 162.894531 246.214844 162.894531 241.886719 Z M 245.089844 241.886719 C 245.089844 237.554688 241.539062 233.996094 237.210938 233.996094 L 225.46875 233.996094 C 221.144531 233.996094 217.589844 237.554688 217.589844 241.886719 C 217.589844 246.214844 221.144531 249.773438 225.46875 249.773438 L 237.210938 249.773438 C 241.539062 249.617188 245.089844 246.214844 245.089844 241.886719 Z M 408.710938 101.613281 C 408.710938 97.285156 405.15625 93.726562 400.832031 93.726562 L 336.402344 93.726562 C 332.078125 93.726562 328.523438 97.285156 328.523438 101.613281 C 328.523438 105.945312 332.078125 109.503906 336.402344 109.503906 L 400.832031 109.503906 C 405.15625 109.503906 408.710938 105.945312 408.710938 101.613281 Z M 206.929688 101.613281 C 206.929688 97.285156 203.375 93.726562 199.050781 93.726562 L 99.550781 93.726562 C 95.222656 93.726562 91.671875 97.285156 91.671875 101.613281 C 91.671875 105.945312 95.222656 109.503906 99.550781 109.503906 L 199.050781 109.503906 C 203.375 109.503906 206.929688 105.945312 206.929688 101.613281 Z M 262.859375 101.613281 C 262.859375 97.285156 259.304688 93.726562 254.980469 93.726562 C 250.652344 93.726562 247.101562 97.285156 247.101562 101.613281 C 247.101562 105.945312 250.652344 109.503906 254.980469 109.503906 C 259.304688 109.503906 262.859375 105.945312 262.859375 101.613281 Z M 487.660156 101.613281 C 487.660156 97.285156 484.105469 93.726562 479.78125 93.726562 L 462.320312 93.726562 C 457.996094 93.726562 454.441406 97.285156 454.441406 101.613281 C 454.441406 105.945312 457.996094 109.503906 462.320312 109.503906 L 479.78125 109.503906 C 484.105469 109.503906 487.660156 106.101562 487.660156 101.613281 Z M 440.382812 101.613281 C 440.382812 97.285156 436.828125 93.726562 432.503906 93.726562 C 428.175781 93.726562 424.625 97.285156 424.625 101.613281 C 424.625 105.945312 428.175781 109.503906 432.503906 109.503906 C 436.828125 109.503906 440.382812 105.945312 440.382812 101.613281 Z M 327.285156 523.507812 C 327.285156 519.175781 323.734375 515.621094 319.40625 515.621094 L 301.949219 515.621094 C 297.621094 515.621094 294.070312 519.175781 294.070312 523.507812 C 294.070312 527.839844 297.621094 531.394531 301.949219 531.394531 L 319.40625 531.394531 C 323.734375 531.394531 327.285156 527.839844 327.285156 523.507812 Z M 214.65625 523.507812 C 214.65625 519.175781 211.101562 515.621094 206.773438 515.621094 L 154.089844 515.621094 C 149.761719 515.621094 146.210938 519.175781 146.210938 523.507812 C 146.210938 527.839844 149.761719 531.394531 154.089844 531.394531 L 206.773438 531.394531 C 211.101562 531.394531 214.65625 527.839844 214.65625 523.507812 Z M 262.859375 523.507812 C 262.859375 519.175781 259.304688 515.621094 254.980469 515.621094 C 250.652344 515.621094 247.101562 519.175781 247.101562 523.507812 C 247.101562 527.839844 250.652344 531.394531 254.980469 531.394531 C 259.304688 531.394531 262.859375 527.839844 262.859375 523.507812 Z M 478.855469 523.507812 C 478.855469 519.175781 475.300781 515.621094 470.972656 515.621094 L 378.425781 515.621094 C 374.101562 515.621094 370.546875 519.175781 370.546875 523.507812 C 370.546875 527.839844 374.101562 531.394531 378.425781 531.394531 L 470.972656 531.394531 C 475.300781 531.394531 478.855469 527.839844 478.855469 523.507812 Z M 239.21875 523.507812 C 239.21875 519.175781 235.667969 515.621094 231.339844 515.621094 C 227.015625 515.621094 223.460938 519.175781 223.460938 523.507812 C 223.460938 527.839844 227.015625 531.394531 231.339844 531.394531 C 235.667969 531.394531 239.21875 527.839844 239.21875 523.507812 Z M 129.988281 522.425781 C 129.988281 518.09375 126.433594 514.539062 122.109375 514.539062 L 92.90625 514.539062 C 88.582031 514.539062 85.027344 518.09375 85.027344 522.425781 C 85.027344 526.753906 88.582031 530.3125 92.90625 530.3125 L 122.261719 530.3125 C 126.589844 530.3125 129.988281 526.910156 129.988281 522.578125 C 129.988281 522.578125 129.988281 522.425781 129.988281 522.425781 Z M 118.554688 312.097656 C 118.554688 307.765625 115 304.210938 110.675781 304.210938 L 81.320312 304.210938 C 76.992188 304.210938 73.4375 307.765625 73.4375 312.097656 C 73.4375 316.425781 76.992188 319.984375 81.320312 319.984375 L 110.519531 319.984375 C 114.847656 319.984375 118.554688 316.425781 118.554688 312.097656 Z M 247.71875 312.097656 C 247.71875 307.765625 244.164062 304.210938 239.839844 304.210938 L 187.152344 304.210938 C 182.828125 304.210938 179.273438 307.765625 179.273438 312.097656 C 179.273438 316.425781 182.828125 319.984375 187.152344 319.984375 L 239.839844 319.984375 C 244.164062 319.984375 247.71875 316.425781 247.71875 312.097656 Z M 352.160156 311.941406 C 352.160156 307.613281 348.609375 304.054688 344.28125 304.054688 L 279.855469 304.054688 C 275.527344 304.054688 271.976562 307.613281 271.976562 311.941406 C 271.976562 316.273438 275.527344 319.828125 279.855469 319.828125 L 344.28125 319.828125 C 348.609375 319.675781 352.160156 316.273438 352.160156 311.941406 Z M 439.148438 312.097656 C 439.148438 307.765625 435.59375 304.210938 431.265625 304.210938 L 413.808594 304.210938 C 409.480469 304.210938 405.929688 307.765625 405.929688 312.097656 C 405.929688 316.425781 409.480469 319.984375 413.808594 319.984375 L 431.265625 319.984375 C 435.59375 319.984375 439.148438 316.425781 439.148438 312.097656 Z M 470.046875 312.097656 C 470.046875 307.765625 466.492188 304.210938 462.167969 304.210938 C 457.839844 304.210938 454.289062 307.765625 454.289062 312.097656 C 454.289062 316.425781 457.839844 319.984375 462.167969 319.984375 C 466.492188 319.984375 470.046875 316.425781 470.046875 312.097656 Z M 491.832031 311.941406 C 491.832031 307.613281 488.277344 304.054688 483.953125 304.054688 C 479.625 304.054688 476.074219 307.613281 476.074219 311.941406 C 476.074219 316.273438 479.625 319.828125 483.953125 319.828125 C 488.277344 319.675781 491.832031 316.273438 491.832031 311.941406 Z M 235.667969 171.828125 C 235.667969 167.496094 232.113281 163.941406 227.789062 163.941406 L 116.546875 163.941406 C 112.21875 163.941406 108.664062 167.496094 108.664062 171.828125 C 108.664062 176.15625 112.21875 179.714844 116.546875 179.714844 L 227.789062 179.714844 C 232.113281 179.558594 235.667969 176.15625 235.667969 171.828125 Z M 326.515625 171.828125 C 326.515625 167.496094 322.960938 163.941406 318.636719 163.941406 L 265.949219 163.941406 C 261.625 163.941406 258.070312 167.496094 258.070312 171.828125 C 258.070312 176.15625 261.625 179.714844 265.949219 179.714844 L 318.636719 179.714844 C 322.960938 179.558594 326.515625 176.15625 326.515625 171.828125 Z M 433.121094 171.828125 C 433.121094 167.496094 429.566406 163.941406 425.242188 163.941406 L 372.554688 163.941406 C 368.230469 163.941406 364.675781 167.496094 364.675781 171.828125 C 364.675781 176.15625 368.230469 179.714844 372.554688 179.714844 L 425.242188 179.714844 C 429.566406 179.558594 433.121094 176.15625 433.121094 171.828125 Z M 485.496094 171.828125 C 485.496094 167.496094 481.945312 163.941406 477.617188 163.941406 L 460.160156 163.941406 C 455.832031 163.941406 452.28125 167.496094 452.28125 171.828125 C 452.28125 176.15625 455.832031 179.714844 460.160156 179.714844 L 477.617188 179.714844 C 481.945312 179.558594 485.496094 176.15625 485.496094 171.828125 Z M 536.328125 171.828125 C 536.328125 167.496094 532.777344 163.941406 528.449219 163.941406 C 524.125 163.941406 520.570312 167.496094 520.570312 171.828125 C 520.570312 176.15625 524.125 179.714844 528.449219 179.714844 C 532.777344 179.558594 536.328125 176.15625 536.328125 171.828125 Z M 101.558594 171.828125 C 101.558594 167.496094 98.003906 163.941406 93.679688 163.941406 L 87.960938 163.941406 C 83.636719 163.941406 80.082031 167.496094 80.082031 171.828125 C 80.082031 176.15625 83.636719 179.714844 87.960938 179.714844 L 93.832031 179.714844 C 98.160156 179.558594 101.558594 176.15625 101.558594 171.828125 Z M 211.253906 558.613281 C 211.253906 554.285156 207.703125 550.726562 203.375 550.726562 L 103.875 550.726562 C 99.550781 550.726562 95.996094 554.285156 95.996094 558.613281 C 95.996094 562.945312 99.550781 566.5 103.875 566.5 L 203.375 566.5 C 207.703125 566.5 211.253906 562.945312 211.253906 558.613281 Z M 372.710938 558.613281 C 372.710938 554.285156 369.15625 550.726562 364.832031 550.726562 L 300.402344 550.726562 C 296.078125 550.726562 292.523438 554.285156 292.523438 558.613281 C 292.523438 562.945312 296.078125 566.5 300.402344 566.5 L 364.832031 566.5 C 369.15625 566.5 372.710938 562.945312 372.710938 558.613281 Z M 89.972656 558.613281 C 89.972656 554.285156 86.417969 550.726562 82.089844 550.726562 C 77.765625 550.726562 74.210938 554.285156 74.210938 558.613281 C 74.210938 562.945312 77.765625 566.5 82.089844 566.5 C 86.417969 566.5 89.972656 562.945312 89.972656 558.613281 Z M 440.691406 558.613281 C 440.691406 554.285156 437.136719 550.726562 432.8125 550.726562 L 385.996094 550.726562 C 381.671875 550.726562 378.117188 554.285156 378.117188 558.613281 C 378.117188 562.945312 381.671875 566.5 385.996094 566.5 L 432.8125 566.5 C 437.136719 566.5 440.691406 563.097656 440.691406 558.613281 Z M 489.667969 558.613281 C 489.667969 554.285156 486.117188 550.726562 481.789062 550.726562 L 464.332031 550.726562 C 460.003906 550.726562 456.449219 554.285156 456.449219 558.613281 C 456.449219 562.945312 460.003906 566.5 464.332031 566.5 L 481.789062 566.5 C 486.117188 566.5 489.667969 562.945312 489.667969 558.613281 Z M 565.222656 136.257812 C 565.222656 131.925781 561.667969 128.371094 557.339844 128.371094 L 504.65625 128.371094 C 500.328125 128.371094 496.777344 131.925781 496.777344 136.257812 C 496.777344 140.585938 500.328125 144.144531 504.65625 144.144531 L 557.339844 144.144531 C 561.667969 144.144531 565.222656 140.585938 565.222656 136.257812 Z M 570.472656 277.144531 C 570.472656 272.816406 566.921875 269.257812 562.59375 269.257812 L 509.910156 269.257812 C 505.582031 269.257812 502.03125 272.816406 502.03125 277.144531 C 502.03125 281.476562 505.582031 285.03125 509.910156 285.03125 L 562.59375 285.03125 C 566.921875 284.878906 570.320312 281.476562 570.472656 277.144531 Z M 620.84375 277.144531 C 620.84375 272.816406 617.289062 269.257812 612.960938 269.257812 L 601.21875 269.257812 C 596.894531 269.257812 593.339844 272.816406 593.339844 277.144531 C 593.339844 281.476562 596.894531 285.03125 601.21875 285.03125 L 612.960938 285.03125 C 617.289062 284.878906 620.6875 281.476562 620.84375 277.144531 Z M 599.519531 31.558594 C 599.519531 27.226562 595.96875 23.667969 591.640625 23.667969 L 579.898438 23.667969 C 575.574219 23.667969 572.019531 27.226562 572.019531 31.558594 C 572.019531 35.886719 575.574219 39.445312 579.898438 39.445312 L 591.640625 39.445312 C 595.96875 39.445312 599.519531 35.886719 599.519531 31.558594 Z M 588.242188 206.777344 C 588.242188 202.449219 584.6875 198.890625 580.363281 198.890625 L 562.902344 198.890625 C 558.578125 198.890625 555.023438 202.449219 555.023438 206.777344 C 555.023438 211.109375 558.578125 214.664062 562.902344 214.664062 L 580.363281 214.664062 C 584.6875 214.664062 588.242188 211.109375 588.242188 206.777344 Z M 518.40625 206.777344 C 518.40625 202.449219 514.851562 198.890625 510.527344 198.890625 C 506.199219 198.890625 502.648438 202.449219 502.648438 206.777344 C 502.648438 211.109375 506.199219 214.664062 510.527344 214.664062 C 514.851562 214.664062 518.40625 211.109375 518.40625 206.777344 Z M 626.867188 241.886719 C 626.867188 237.554688 623.3125 233.996094 618.988281 233.996094 L 557.339844 233.996094 C 553.015625 233.996094 549.460938 237.554688 549.460938 241.886719 C 549.460938 246.214844 553.015625 249.773438 557.339844 249.773438 L 618.988281 249.773438 C 623.3125 249.617188 626.867188 246.214844 626.867188 241.886719 Z M 538.027344 240.492188 C 538.027344 236.164062 534.476562 232.605469 530.148438 232.605469 L 518.40625 232.605469 C 514.082031 232.605469 510.527344 236.164062 510.527344 240.492188 C 510.527344 244.824219 514.082031 248.378906 518.40625 248.378906 L 530.148438 248.378906 C 534.476562 248.378906 538.027344 244.824219 538.027344 240.492188 Z M 628.257812 101.613281 C 628.257812 97.285156 624.703125 93.726562 620.378906 93.726562 L 555.949219 93.726562 C 551.625 93.726562 548.070312 97.285156 548.070312 101.613281 C 548.070312 105.945312 551.625 109.503906 555.949219 109.503906 L 620.378906 109.503906 C 624.703125 109.503906 628.257812 105.945312 628.257812 101.613281 Z M 521.960938 101.613281 C 521.960938 97.285156 518.40625 93.726562 514.082031 93.726562 C 509.753906 93.726562 506.199219 97.285156 506.199219 101.613281 C 506.199219 105.945312 509.753906 109.503906 514.082031 109.503906 C 518.40625 109.503906 521.960938 105.945312 521.960938 101.613281 Z M 540.65625 312.40625 C 540.65625 308.078125 537.101562 304.519531 532.777344 304.519531 L 480.089844 304.519531 C 475.765625 304.519531 472.210938 308.078125 472.210938 312.40625 C 472.210938 316.738281 475.765625 320.292969 480.089844 320.292969 L 532.777344 320.292969 C 537.101562 320.140625 540.65625 316.738281 540.65625 312.40625 Z M 631.195312 312.097656 C 631.195312 307.765625 627.640625 304.210938 623.3125 304.210938 L 572.792969 304.210938 C 568.464844 304.210938 564.910156 307.765625 564.910156 312.097656 C 564.910156 316.425781 568.464844 319.984375 572.792969 319.984375 L 623.3125 319.984375 C 627.640625 319.984375 631.195312 316.425781 631.195312 312.097656 Z M 630.882812 170.433594 C 630.882812 166.105469 627.332031 162.546875 623.003906 162.546875 L 570.320312 162.546875 C 565.992188 162.546875 562.441406 166.105469 562.441406 170.433594 C 562.441406 174.765625 565.992188 178.324219 570.320312 178.324219 L 623.003906 178.324219 C 627.332031 178.324219 630.882812 174.921875 630.882812 170.433594 Z M 600.910156 66.664062 C 600.910156 62.332031 597.359375 58.777344 593.03125 58.777344 L 528.605469 58.777344 C 524.277344 58.777344 520.722656 62.332031 520.722656 66.664062 C 520.722656 70.992188 524.277344 74.550781 528.605469 74.550781 L 593.03125 74.550781 C 597.359375 74.550781 600.910156 70.992188 600.910156 66.664062 Z M 626.867188 31.558594 C 626.867188 27.226562 623.3125 23.667969 618.988281 23.667969 C 614.660156 23.667969 611.109375 27.226562 611.109375 31.558594 C 611.109375 35.886719 614.660156 39.445312 618.988281 39.445312 C 623.3125 39.445312 626.867188 35.886719 626.867188 31.558594 Z M 604.617188 135.792969 C 604.464844 131.460938 600.910156 128.058594 596.585938 128.214844 C 592.257812 128.371094 588.859375 131.925781 589.015625 136.257812 C 589.167969 140.585938 592.722656 143.988281 597.046875 143.835938 C 601.375 143.679688 604.773438 140.277344 604.617188 135.949219 C 604.617188 135.949219 604.617188 135.792969 604.617188 135.792969 Z M 518.40625 206.777344 C 518.40625 202.449219 514.851562 198.890625 510.527344 198.890625 C 506.199219 198.890625 502.648438 202.449219 502.648438 206.777344 C 502.648438 211.109375 506.199219 214.664062 510.527344 214.664062 C 514.851562 214.664062 518.40625 211.109375 518.40625 206.777344 Z M 544.980469 487.472656 C 544.980469 483.144531 541.425781 479.585938 537.101562 479.585938 L 507.902344 479.585938 C 503.574219 479.585938 500.019531 483.144531 500.019531 487.472656 C 500.019531 491.804688 503.574219 495.359375 507.902344 495.359375 L 537.101562 495.359375 C 541.425781 495.359375 544.980469 491.804688 544.980469 487.472656 Z M 626.714844 347.203125 C 626.714844 342.875 623.160156 339.316406 618.832031 339.316406 L 597.046875 339.316406 C 592.722656 339.316406 589.167969 342.875 589.167969 347.203125 C 589.167969 351.535156 592.722656 355.089844 597.046875 355.089844 L 618.832031 355.089844 C 623.160156 354.9375 626.714844 351.535156 626.714844 347.203125 Z M 517.789062 452.367188 C 517.789062 448.039062 514.234375 444.480469 509.910156 444.480469 C 505.582031 444.480469 502.03125 448.035156 502.03125 452.367188 C 502.03125 456.699219 505.582031 460.253906 509.910156 460.253906 C 514.234375 460.253906 517.789062 456.699219 517.789062 452.367188 Z M 611.726562 452.367188 C 611.726562 448.039062 608.171875 444.480469 603.847656 444.480469 C 599.519531 444.480469 595.96875 448.035156 595.96875 452.367188 C 595.96875 456.699219 599.519531 460.253906 603.847656 460.253906 C 608.171875 460.253906 611.726562 456.699219 611.726562 452.367188 Z M 612.035156 417.414062 C 612.035156 413.085938 608.480469 409.527344 604.15625 409.527344 L 535.09375 409.527344 C 530.765625 409.527344 527.214844 413.085938 527.214844 417.414062 C 527.214844 421.746094 530.765625 425.304688 535.09375 425.304688 L 604.15625 425.304688 C 608.480469 425.304688 612.035156 421.746094 612.035156 417.414062 Z M 629.492188 523.507812 C 629.492188 519.175781 625.941406 515.621094 621.613281 515.621094 L 568.929688 515.621094 C 564.601562 515.621094 561.050781 519.175781 561.050781 523.507812 C 561.050781 527.839844 564.601562 531.394531 568.929688 531.394531 L 621.613281 531.394531 C 625.941406 531.394531 629.492188 527.992188 629.492188 523.507812 Z M 552.707031 522.425781 C 552.707031 518.09375 549.152344 514.539062 544.828125 514.539062 L 515.625 514.539062 C 511.300781 514.539062 507.746094 518.09375 507.746094 522.425781 C 507.746094 526.753906 511.300781 530.3125 515.625 530.3125 L 544.828125 530.3125 C 549.152344 530.3125 552.707031 526.753906 552.707031 522.425781 Z M 621.613281 558.613281 C 621.613281 554.285156 618.0625 550.726562 613.734375 550.726562 L 560.585938 550.726562 C 556.261719 550.726562 552.707031 554.285156 552.707031 558.613281 C 552.707031 562.945312 556.257812 566.5 560.585938 566.5 L 613.734375 566.5 C 618.0625 566.5 621.613281 562.945312 621.613281 558.613281 Z M 574.800781 347.203125 C 574.800781 342.875 571.246094 339.316406 566.921875 339.316406 L 514.234375 339.316406 C 509.910156 339.316406 506.355469 342.875 506.355469 347.203125 C 506.355469 351.535156 509.910156 355.089844 514.234375 355.089844 L 566.921875 355.089844 C 571.246094 354.9375 574.800781 351.535156 574.800781 347.203125 Z M 611.726562 452.367188 C 611.726562 448.039062 608.171875 444.480469 603.847656 444.480469 C 599.519531 444.480469 595.96875 448.035156 595.96875 452.367188 C 595.96875 456.699219 599.519531 460.253906 603.847656 460.253906 C 608.171875 460.253906 611.726562 456.699219 611.726562 452.367188 Z M 616.515625 487.472656 C 616.515625 483.144531 612.960938 479.585938 608.636719 479.585938 L 555.949219 479.585938 C 551.625 479.585938 548.070312 483.144531 548.070312 487.472656 C 548.070312 491.804688 551.625 495.359375 555.949219 495.359375 L 608.636719 495.359375 C 612.960938 495.359375 616.515625 491.804688 616.515625 487.472656 Z M 621.613281 558.613281 C 621.613281 554.285156 618.0625 550.726562 613.734375 550.726562 L 560.585938 550.726562 C 556.261719 550.726562 552.707031 554.285156 552.707031 558.613281 C 552.707031 562.945312 556.257812 566.5 560.585938 566.5 L 613.734375 566.5 C 618.0625 566.5 621.613281 562.945312 621.613281 558.613281 Z M 611.726562 452.367188 C 611.726562 448.039062 608.171875 444.480469 603.847656 444.480469 C 599.519531 444.480469 595.96875 448.035156 595.96875 452.367188 C 595.96875 456.699219 599.519531 460.253906 603.847656 460.253906 C 608.171875 460.253906 611.726562 456.699219 611.726562 452.367188 Z M 554.25 382.308594 C 554.25 377.980469 550.699219 374.421875 546.371094 374.421875 C 542.046875 374.421875 538.492188 377.980469 538.492188 382.308594 C 538.492188 386.640625 542.046875 390.195312 546.371094 390.195312 C 550.699219 390.195312 554.25 386.640625 554.25 382.308594 Z M 628.722656 382.15625 C 628.722656 377.824219 625.167969 374.269531 620.84375 374.269531 C 616.515625 374.269531 612.960938 377.824219 612.960938 382.15625 C 612.960938 386.484375 616.515625 390.042969 620.84375 390.042969 C 625.167969 390.042969 628.722656 386.484375 628.722656 382.15625 Z M 628.722656 382.15625"/></g></svg>