<svg xmlns="http://www.w3.org/2000/svg" xmlns:xlink="http://www.w3.org/1999/xlink" width="375" viewBox="0 0 375 375" height="375" version="1.0"><defs><g id="a"><path d="M 82.734375 -65.765625 C 86.765625 -64.328125 88.78125 -62.40625 88.78125 -60 C 88.78125 -59.21875 88.414062 -57.742188 87.6875 -55.578125 L 70.375 -5.5 C 70.25 -5.082031 70.035156 -4.570312 69.734375 -3.96875 C 69.429688 -3.363281 68.632812 -2.566406 67.34375 -1.578125 C 66.050781 -0.585938 64.515625 -0.09375 62.734375 -0.09375 C 60.960938 -0.09375 59.429688 -0.585938 58.140625 -1.578125 C 56.847656 -2.566406 55.992188 -3.546875 55.578125 -4.515625 L 45.015625 -35.640625 C 38.335938 -15.910156 34.9375 -5.863281 34.8125 -5.5 C 34.695312 -5.144531 34.425781 -4.632812 34 -3.96875 C 33.582031 -3.3125 33.101562 -2.710938 32.5625 -2.171875 C 31.1875 -0.785156 29.535156 -0.09375 27.609375 -0.09375 C 25.679688 -0.09375 24.097656 -0.539062 22.859375 -1.4375 C 21.628906 -2.34375 20.804688 -3.25 20.390625 -4.15625 L 19.765625 -5.5 L 2.34375 -55.578125 C 1.6875 -57.554688 1.359375 -59.03125 1.359375 -60 C 1.359375 -62.40625 3.367188 -64.296875 7.390625 -65.671875 C 9.140625 -66.273438 10.71875 -66.578125 12.125 -66.578125 C 13.539062 -66.578125 14.625 -66.09375 15.375 -65.125 C 16.132812 -64.164062 16.8125 -62.695312 17.40625 -60.71875 L 27.34375 -30.578125 L 37.171875 -60.265625 C 38.015625 -62.796875 39.546875 -64.539062 41.765625 -65.5 C 42.734375 -65.914062 43.984375 -66.125 45.515625 -66.125 C 47.046875 -66.125 48.472656 -65.628906 49.796875 -64.640625 C 51.117188 -63.648438 51.960938 -62.671875 52.328125 -61.703125 L 62.703125 -30.40625 L 72.625 -60.71875 C 73.101562 -62.101562 73.492188 -63.125 73.796875 -63.78125 C 74.097656 -64.445312 74.65625 -65.09375 75.46875 -65.71875 C 76.28125 -66.351562 77.285156 -66.671875 78.484375 -66.671875 C 79.691406 -66.671875 81.109375 -66.367188 82.734375 -65.765625 Z M 82.734375 -65.765625"/></g><g id="b"><path d="M 37.34375 -66.109375 C 39.6875 -66.109375 41.410156 -65.910156 42.515625 -65.515625 C 43.628906 -65.128906 44.425781 -64.484375 44.90625 -63.578125 C 45.570312 -62.203125 45.90625 -60.335938 45.90625 -57.984375 L 45.90625 -23.09375 C 45.90625 -16.78125 43.617188 -11.203125 39.046875 -6.359375 C 34.484375 -1.515625 28.65625 0.90625 21.5625 0.90625 C 17.59375 0.90625 14.070312 0.03125 11 -1.71875 C 8.238281 -3.21875 6.316406 -4.566406 5.234375 -5.765625 L 4.515625 -6.5 C 2.410156 -8.71875 1.359375 -10.625 1.359375 -12.21875 C 1.359375 -13.8125 2.410156 -15.691406 4.515625 -17.859375 C 6.617188 -20.023438 8.476562 -21.109375 10.09375 -21.109375 C 11.71875 -21.109375 13.519531 -20.113281 15.5 -18.125 C 17.488281 -16.144531 19.640625 -15.15625 21.953125 -15.15625 C 24.273438 -15.15625 26.1875 -15.9375 27.6875 -17.5 C 29.1875 -19.0625 29.9375 -21.132812 29.9375 -23.71875 L 29.9375 -57.453125 C 29.9375 -61.054688 30.539062 -63.367188 31.75 -64.390625 C 33.132812 -65.535156 35 -66.109375 37.34375 -66.109375 Z M 37.34375 -66.109375"/></g></defs><path fill="#1C2833" d="M 313.457031 187.5 C 313.457031 189.5625 313.40625 191.621094 313.304688 193.679688 C 313.203125 195.738281 313.054688 197.792969 312.851562 199.847656 C 312.648438 201.898438 312.398438 203.941406 312.09375 205.980469 C 311.792969 208.019531 311.441406 210.050781 311.039062 212.074219 C 310.636719 214.09375 310.183594 216.105469 309.683594 218.105469 C 309.183594 220.105469 308.632812 222.089844 308.035156 224.0625 C 307.4375 226.035156 306.789062 227.992188 306.09375 229.933594 C 305.398438 231.875 304.660156 233.796875 303.871094 235.703125 C 303.082031 237.605469 302.246094 239.492188 301.363281 241.355469 C 300.484375 243.21875 299.554688 245.058594 298.585938 246.878906 C 297.613281 248.695312 296.597656 250.488281 295.539062 252.257812 C 294.476562 254.023438 293.375 255.765625 292.230469 257.480469 C 291.085938 259.195312 289.898438 260.878906 288.667969 262.535156 C 287.441406 264.191406 286.175781 265.816406 284.867188 267.410156 C 283.558594 269 282.210938 270.5625 280.828125 272.089844 C 279.445312 273.617188 278.023438 275.109375 276.566406 276.566406 C 275.105469 278.023438 273.613281 279.445312 272.085938 280.832031 C 270.558594 282.214844 269 283.5625 267.40625 284.867188 C 265.8125 286.175781 264.1875 287.445312 262.53125 288.671875 C 260.875 289.898438 259.191406 291.085938 257.476562 292.230469 C 255.761719 293.378906 254.023438 294.480469 252.253906 295.539062 C 250.484375 296.597656 248.691406 297.613281 246.875 298.585938 C 245.058594 299.558594 243.214844 300.484375 241.351562 301.367188 C 239.488281 302.246094 237.605469 303.082031 235.699219 303.871094 C 233.796875 304.660156 231.875 305.402344 229.933594 306.097656 C 227.992188 306.792969 226.035156 307.4375 224.0625 308.035156 C 222.089844 308.632812 220.101562 309.183594 218.101562 309.683594 C 216.105469 310.1875 214.09375 310.636719 212.070312 311.039062 C 210.050781 311.441406 208.019531 311.792969 205.980469 312.097656 C 203.941406 312.398438 201.894531 312.652344 199.84375 312.855469 C 197.792969 313.054688 195.738281 313.207031 193.679688 313.308594 C 191.621094 313.410156 189.558594 313.460938 187.496094 313.460938 C 185.4375 313.460938 183.375 313.410156 181.316406 313.308594 C 179.257812 313.207031 177.203125 313.054688 175.152344 312.855469 C 173.101562 312.652344 171.054688 312.398438 169.015625 312.097656 C 166.976562 311.792969 164.945312 311.441406 162.925781 311.039062 C 160.902344 310.636719 158.890625 310.1875 156.890625 309.683594 C 154.890625 309.183594 152.90625 308.636719 150.933594 308.035156 C 148.960938 307.4375 147.003906 306.792969 145.0625 306.097656 C 143.121094 305.402344 141.199219 304.660156 139.292969 303.871094 C 137.390625 303.082031 135.507812 302.246094 133.644531 301.367188 C 131.777344 300.484375 129.9375 299.558594 128.121094 298.585938 C 126.300781 297.613281 124.507812 296.597656 122.742188 295.539062 C 120.972656 294.480469 119.230469 293.378906 117.519531 292.230469 C 115.804688 291.085938 114.117188 289.898438 112.464844 288.671875 C 110.808594 287.445312 109.183594 286.175781 107.589844 284.867188 C 105.996094 283.5625 104.433594 282.214844 102.90625 280.832031 C 101.378906 279.445312 99.886719 278.023438 98.429688 276.566406 C 96.972656 275.109375 95.550781 273.617188 94.167969 272.089844 C 92.78125 270.5625 91.4375 269 90.128906 267.410156 C 88.820312 265.816406 87.554688 264.191406 86.324219 262.535156 C 85.097656 260.878906 83.910156 259.195312 82.765625 257.480469 C 81.621094 255.765625 80.519531 254.023438 79.457031 252.257812 C 78.398438 250.488281 77.382812 248.695312 76.410156 246.878906 C 75.4375 245.058594 74.511719 243.21875 73.632812 241.355469 C 72.75 239.492188 71.914062 237.605469 71.125 235.703125 C 70.335938 233.796875 69.59375 231.875 68.902344 229.933594 C 68.207031 227.992188 67.558594 226.035156 66.960938 224.0625 C 66.363281 222.089844 65.8125 220.105469 65.3125 218.105469 C 64.8125 216.105469 64.359375 214.09375 63.957031 212.074219 C 63.554688 210.050781 63.203125 208.019531 62.902344 205.980469 C 62.597656 203.941406 62.347656 201.898438 62.144531 199.847656 C 61.941406 197.792969 61.789062 195.738281 61.6875 193.679688 C 61.589844 191.621094 61.539062 189.5625 61.539062 187.5 C 61.539062 185.4375 61.589844 183.378906 61.6875 181.320312 C 61.789062 179.261719 61.941406 177.207031 62.144531 175.152344 C 62.347656 173.101562 62.597656 171.058594 62.902344 169.019531 C 63.203125 166.980469 63.554688 164.949219 63.957031 162.925781 C 64.359375 160.90625 64.8125 158.894531 65.3125 156.894531 C 65.8125 154.894531 66.363281 152.910156 66.960938 150.9375 C 67.558594 148.964844 68.207031 147.007812 68.902344 145.066406 C 69.59375 143.125 70.335938 141.203125 71.125 139.296875 C 71.914062 137.394531 72.75 135.507812 73.632812 133.644531 C 74.511719 131.78125 75.4375 129.941406 76.410156 128.121094 C 77.382812 126.304688 78.398438 124.511719 79.457031 122.742188 C 80.519531 120.976562 81.621094 119.234375 82.765625 117.519531 C 83.910156 115.804688 85.097656 114.121094 86.324219 112.464844 C 87.554688 110.808594 88.820312 109.183594 90.128906 107.589844 C 91.4375 106 92.78125 104.4375 94.167969 102.910156 C 95.550781 101.382812 96.972656 99.890625 98.429688 98.433594 C 99.886719 96.976562 101.378906 95.554688 102.90625 94.167969 C 104.433594 92.785156 105.996094 91.4375 107.589844 90.132812 C 109.183594 88.824219 110.808594 87.554688 112.464844 86.328125 C 114.117188 85.101562 115.804688 83.914062 117.519531 82.769531 C 119.230469 81.621094 120.972656 80.519531 122.742188 79.460938 C 124.507812 78.402344 126.300781 77.386719 128.121094 76.414062 C 129.9375 75.441406 131.777344 74.515625 133.644531 73.632812 C 135.507812 72.75 137.390625 71.917969 139.292969 71.128906 C 141.199219 70.339844 143.121094 69.597656 145.0625 68.902344 C 147.003906 68.207031 148.960938 67.5625 150.933594 66.964844 C 152.90625 66.363281 154.890625 65.816406 156.890625 65.316406 C 158.890625 64.8125 160.902344 64.363281 162.925781 63.960938 C 164.945312 63.558594 166.976562 63.207031 169.015625 62.902344 C 171.054688 62.601562 173.101562 62.347656 175.152344 62.144531 C 177.203125 61.945312 179.257812 61.792969 181.316406 61.691406 C 183.375 61.589844 185.4375 61.539062 187.496094 61.539062 C 189.558594 61.539062 191.621094 61.589844 193.679688 61.691406 C 195.738281 61.792969 197.792969 61.945312 199.84375 62.144531 C 201.894531 62.347656 203.941406 62.601562 205.980469 62.902344 C 208.019531 63.207031 210.050781 63.558594 212.070312 63.960938 C 214.09375 64.363281 216.105469 64.8125 218.101562 65.316406 C 220.101562 65.816406 222.089844 66.363281 224.0625 66.964844 C 226.035156 67.5625 227.992188 68.207031 229.933594 68.902344 C 231.875 69.597656 233.796875 70.339844 235.699219 71.128906 C 237.605469 71.917969 239.488281 72.75 241.351562 73.632812 C 243.214844 74.515625 245.058594 75.441406 246.875 76.414062 C 248.691406 77.386719 250.484375 78.402344 252.253906 79.460938 C 254.023438 80.519531 255.761719 81.621094 257.476562 82.769531 C 259.191406 83.914062 260.875 85.101562 262.53125 86.328125 C 264.1875 87.554688 265.8125 88.824219 267.40625 90.132812 C 269 91.4375 270.558594 92.785156 272.085938 94.167969 C 273.613281 95.554688 275.105469 96.976562 276.566406 98.433594 C 278.023438 99.890625 279.445312 101.382812 280.828125 102.910156 C 282.210938 104.4375 283.558594 106 284.867188 107.589844 C 286.175781 109.183594 287.441406 110.808594 288.667969 112.464844 C 289.898438 114.121094 291.085938 115.804688 292.230469 117.519531 C 293.375 119.234375 294.476562 120.976562 295.539062 122.742188 C 296.597656 124.511719 297.613281 126.304688 298.585938 128.121094 C 299.554688 129.941406 300.484375 131.78125 301.363281 133.644531 C 302.246094 135.507812 303.082031 137.394531 303.871094 139.296875 C 304.660156 141.203125 305.398438 143.125 306.09375 145.066406 C 306.789062 147.007812 307.4375 148.964844 308.035156 150.9375 C 308.632812 152.910156 309.183594 154.894531 309.683594 156.894531 C 310.183594 158.894531 310.636719 160.90625 311.039062 162.925781 C 311.441406 164.949219 311.792969 166.980469 312.09375 169.019531 C 312.398438 171.058594 312.648438 173.101562 312.851562 175.152344 C 313.054688 177.207031 313.203125 179.261719 313.304688 181.320312 C 313.40625 183.378906 313.457031 185.4375 313.457031 187.5 L 303.382812 187.5 C 303.382812 185.601562 303.335938 183.707031 303.242188 181.8125 C 303.148438 179.917969 303.007812 178.027344 302.824219 176.140625 C 302.636719 174.253906 302.40625 172.371094 302.125 170.496094 C 301.847656 168.621094 301.523438 166.753906 301.152344 164.890625 C 300.785156 163.03125 300.367188 161.183594 299.90625 159.34375 C 299.445312 157.503906 298.941406 155.675781 298.390625 153.859375 C 297.839844 152.046875 297.246094 150.246094 296.605469 148.460938 C 295.96875 146.675781 295.285156 144.90625 294.558594 143.152344 C 293.835938 141.402344 293.066406 139.667969 292.253906 137.953125 C 291.445312 136.238281 290.589844 134.546875 289.699219 132.871094 C 288.804688 131.199219 287.867188 129.550781 286.894531 127.925781 C 285.917969 126.296875 284.90625 124.695312 283.851562 123.117188 C 282.796875 121.542969 281.707031 119.992188 280.574219 118.46875 C 279.445312 116.945312 278.28125 115.449219 277.078125 113.984375 C 275.875 112.519531 274.636719 111.082031 273.363281 109.675781 C 272.085938 108.273438 270.78125 106.898438 269.441406 105.558594 C 268.097656 104.21875 266.726562 102.910156 265.320312 101.636719 C 263.914062 100.363281 262.480469 99.125 261.011719 97.921875 C 259.546875 96.71875 258.050781 95.550781 256.527344 94.421875 C 255.007812 93.292969 253.457031 92.199219 251.878906 91.144531 C 250.300781 90.09375 248.699219 89.078125 247.074219 88.101562 C 245.445312 87.128906 243.796875 86.195312 242.125 85.300781 C 240.453125 84.40625 238.757812 83.554688 237.042969 82.742188 C 235.328125 81.933594 233.597656 81.164062 231.84375 80.4375 C 230.09375 79.710938 228.324219 79.03125 226.539062 78.390625 C 224.75 77.75 222.953125 77.15625 221.136719 76.605469 C 219.320312 76.054688 217.496094 75.550781 215.65625 75.089844 C 213.816406 74.628906 211.964844 74.214844 210.105469 73.84375 C 208.246094 73.472656 206.378906 73.148438 204.5 72.871094 C 202.625 72.59375 200.742188 72.359375 198.855469 72.175781 C 196.96875 71.988281 195.078125 71.847656 193.183594 71.757812 C 191.289062 71.664062 189.394531 71.617188 187.496094 71.617188 C 185.601562 71.617188 183.707031 71.664062 181.8125 71.757812 C 179.917969 71.847656 178.027344 71.988281 176.140625 72.175781 C 174.25 72.359375 172.371094 72.59375 170.492188 72.871094 C 168.617188 73.148438 166.75 73.472656 164.890625 73.84375 C 163.03125 74.214844 161.179688 74.628906 159.339844 75.089844 C 157.5 75.550781 155.671875 76.054688 153.859375 76.605469 C 152.042969 77.15625 150.242188 77.75 148.457031 78.390625 C 146.671875 79.03125 144.902344 79.710938 143.152344 80.4375 C 141.398438 81.164062 139.664062 81.933594 137.949219 82.742188 C 136.238281 83.554688 134.542969 84.40625 132.871094 85.300781 C 131.199219 86.195312 129.546875 87.128906 127.921875 88.101562 C 126.296875 89.078125 124.691406 90.09375 123.117188 91.144531 C 121.539062 92.199219 119.988281 93.292969 118.464844 94.421875 C 116.941406 95.550781 115.449219 96.71875 113.980469 97.921875 C 112.515625 99.125 111.082031 100.363281 109.675781 101.636719 C 108.269531 102.910156 106.898438 104.21875 105.554688 105.558594 C 104.214844 106.898438 102.90625 108.273438 101.632812 109.675781 C 100.359375 111.082031 99.121094 112.519531 97.917969 113.984375 C 96.714844 115.449219 95.550781 116.945312 94.417969 118.46875 C 93.289062 119.992188 92.199219 121.542969 91.144531 123.117188 C 90.089844 124.695312 89.074219 126.296875 88.101562 127.925781 C 87.125 129.550781 86.191406 131.199219 85.296875 132.871094 C 84.402344 134.546875 83.550781 136.238281 82.742188 137.953125 C 81.929688 139.667969 81.160156 141.402344 80.433594 143.152344 C 79.710938 144.90625 79.027344 146.675781 78.386719 148.460938 C 77.75 150.246094 77.15625 152.046875 76.605469 153.859375 C 76.054688 155.675781 75.546875 157.503906 75.085938 159.34375 C 74.625 161.183594 74.210938 163.03125 73.839844 164.890625 C 73.472656 166.753906 73.148438 168.621094 72.867188 170.496094 C 72.589844 172.371094 72.359375 174.253906 72.171875 176.140625 C 71.988281 178.027344 71.847656 179.917969 71.753906 181.8125 C 71.660156 183.707031 71.613281 185.601562 71.613281 187.5 C 71.613281 189.398438 71.660156 191.292969 71.753906 193.1875 C 71.847656 195.082031 71.988281 196.972656 72.171875 198.859375 C 72.359375 200.746094 72.589844 202.628906 72.867188 204.503906 C 73.148438 206.378906 73.472656 208.246094 73.839844 210.109375 C 74.210938 211.96875 74.625 213.816406 75.085938 215.65625 C 75.546875 217.496094 76.054688 219.324219 76.605469 221.140625 C 77.15625 222.953125 77.75 224.753906 78.386719 226.539062 C 79.027344 228.324219 79.710938 230.09375 80.433594 231.847656 C 81.160156 233.597656 81.929688 235.332031 82.742188 237.046875 C 83.550781 238.761719 84.402344 240.453125 85.296875 242.128906 C 86.191406 243.800781 87.125 245.449219 88.101562 247.074219 C 89.074219 248.703125 90.089844 250.304688 91.144531 251.882812 C 92.199219 253.457031 93.289062 255.007812 94.417969 256.53125 C 95.550781 258.054688 96.714844 259.550781 97.917969 261.015625 C 99.121094 262.480469 100.359375 263.917969 101.632812 265.324219 C 102.90625 266.726562 104.214844 268.101562 105.554688 269.441406 C 106.898438 270.78125 108.269531 272.089844 109.675781 273.363281 C 111.082031 274.636719 112.515625 275.875 113.980469 277.078125 C 115.449219 278.28125 116.941406 279.449219 118.464844 280.578125 C 119.988281 281.707031 121.539062 282.800781 123.117188 283.851562 C 124.691406 284.90625 126.296875 285.921875 127.921875 286.894531 C 129.546875 287.871094 131.199219 288.804688 132.871094 289.699219 C 134.542969 290.59375 136.238281 291.445312 137.949219 292.257812 C 139.664062 293.066406 141.398438 293.835938 143.152344 294.5625 C 144.902344 295.289062 146.671875 295.96875 148.457031 296.609375 C 150.242188 297.25 152.042969 297.84375 153.859375 298.394531 C 155.671875 298.945312 157.5 299.449219 159.339844 299.910156 C 161.179688 300.371094 163.03125 300.785156 164.890625 301.15625 C 166.75 301.527344 168.617188 301.851562 170.492188 302.128906 C 172.371094 302.40625 174.25 302.640625 176.140625 302.824219 C 178.027344 303.011719 179.917969 303.152344 181.8125 303.242188 C 183.707031 303.335938 185.601562 303.382812 187.496094 303.382812 C 189.394531 303.382812 191.289062 303.335938 193.183594 303.242188 C 195.078125 303.152344 196.96875 303.011719 198.855469 302.824219 C 200.742188 302.640625 202.625 302.40625 204.5 302.128906 C 206.378906 301.851562 208.246094 301.527344 210.105469 301.15625 C 211.964844 300.785156 213.816406 300.371094 215.65625 299.910156 C 217.496094 299.449219 219.320312 298.945312 221.136719 298.394531 C 222.953125 297.84375 224.75 297.25 226.539062 296.609375 C 228.324219 295.96875 230.09375 295.289062 231.84375 294.5625 C 233.597656 293.835938 235.328125 293.066406 237.042969 292.257812 C 238.757812 291.445312 240.453125 290.59375 242.125 289.699219 C 243.796875 288.804688 245.445312 287.871094 247.074219 286.894531 C 248.699219 285.921875 250.300781 284.90625 251.878906 283.851562 C 253.457031 282.800781 255.007812 281.707031 256.527344 280.578125 C 258.050781 279.449219 259.546875 278.28125 261.011719 277.078125 C 262.480469 275.875 263.914062 274.636719 265.320312 273.363281 C 266.726562 272.089844 268.097656 270.78125 269.441406 269.441406 C 270.78125 268.101562 272.085938 266.726562 273.363281 265.324219 C 274.636719 263.917969 275.875 262.480469 277.078125 261.015625 C 278.28125 259.550781 279.445312 258.054688 280.574219 256.53125 C 281.707031 255.007812 282.796875 253.457031 283.851562 251.882812 C 284.90625 250.304688 285.917969 248.703125 286.894531 247.074219 C 287.867188 245.449219 288.804688 243.800781 289.699219 242.128906 C 290.589844 240.453125 291.445312 238.761719 292.253906 237.046875 C 293.066406 235.332031 293.835938 233.597656 294.558594 231.847656 C 295.285156 230.09375 295.96875 228.324219 296.605469 226.539062 C 297.246094 224.753906 297.839844 222.953125 298.390625 221.140625 C 298.941406 219.324219 299.445312 217.496094 299.90625 215.65625 C 300.367188 213.816406 300.785156 211.96875 301.152344 210.109375 C 301.523438 208.246094 301.847656 206.378906 302.125 204.503906 C 302.40625 202.628906 302.636719 200.746094 302.824219 198.859375 C 303.007812 196.972656 303.148438 195.082031 303.242188 193.1875 C 303.335938 191.292969 303.382812 189.398438 303.382812 187.5 Z M 313.457031 187.5"/><path fill="#CD6155" d="M 313.347656 192.75 C 313.265625 194.753906 313.132812 196.753906 312.953125 198.753906 C 312.773438 200.753906 312.546875 202.746094 312.273438 204.734375 C 312 206.722656 311.675781 208.703125 311.308594 210.675781 C 310.9375 212.648438 310.523438 214.609375 310.058594 216.5625 C 309.597656 218.515625 309.085938 220.453125 308.53125 222.382812 C 307.976562 224.3125 307.375 226.226562 306.726562 228.125 C 306.078125 230.023438 305.386719 231.90625 304.648438 233.773438 C 303.914062 235.640625 303.132812 237.488281 302.304688 239.316406 C 301.480469 241.144531 300.613281 242.953125 299.699219 244.742188 C 298.789062 246.527344 297.835938 248.292969 296.835938 250.035156 C 295.839844 251.777344 294.804688 253.496094 293.726562 255.1875 C 292.648438 256.878906 291.53125 258.546875 290.371094 260.183594 C 289.214844 261.824219 288.015625 263.433594 286.78125 265.015625 C 285.546875 266.597656 284.273438 268.148438 282.964844 269.667969 C 281.65625 271.191406 280.3125 272.679688 278.933594 274.136719 C 277.550781 275.59375 276.136719 277.015625 274.691406 278.402344 C 273.242188 279.792969 271.761719 281.148438 270.246094 282.464844 C 268.734375 283.785156 267.191406 285.066406 265.617188 286.308594 C 264.042969 287.554688 262.441406 288.761719 260.808594 289.929688 C 259.175781 291.097656 257.519531 292.222656 255.832031 293.3125 C 254.144531 294.402344 252.433594 295.449219 250.699219 296.457031 C 248.964844 297.464844 247.203125 298.429688 245.421875 299.351562 C 243.640625 300.273438 241.839844 301.152344 240.015625 301.988281 C 238.191406 302.828125 236.347656 303.621094 234.484375 304.367188 C 232.625 305.117188 230.746094 305.820312 228.847656 306.480469 C 226.953125 307.136719 225.042969 307.75 223.117188 308.320312 C 221.195312 308.886719 219.257812 309.40625 217.308594 309.882812 C 215.355469 310.355469 213.398438 310.785156 211.425781 311.167969 C 209.457031 311.546875 207.480469 311.882812 205.492188 312.167969 C 203.507812 312.453125 201.515625 312.695312 199.515625 312.886719 C 197.519531 313.078125 195.519531 313.21875 193.515625 313.316406 C 191.511719 313.414062 189.503906 313.460938 187.496094 313.460938 C 185.492188 313.460938 183.484375 313.414062 181.480469 313.316406 C 179.476562 313.21875 177.476562 313.078125 175.476562 312.886719 C 173.480469 312.695312 171.488281 312.453125 169.503906 312.167969 C 167.515625 311.882812 165.539062 311.546875 163.566406 311.167969 C 161.597656 310.785156 159.636719 310.355469 157.6875 309.882812 C 155.738281 309.40625 153.800781 308.886719 151.875 308.320312 C 149.953125 307.75 148.042969 307.136719 146.144531 306.480469 C 144.25 305.820312 142.371094 305.117188 140.511719 304.367188 C 138.648438 303.621094 136.804688 302.828125 134.980469 301.988281 C 133.15625 301.152344 131.355469 300.273438 129.570312 299.351562 C 127.789062 298.429688 126.03125 297.464844 124.296875 296.457031 C 122.558594 295.449219 120.847656 294.402344 119.164062 293.3125 C 117.476562 292.222656 115.820312 291.097656 114.1875 289.929688 C 112.554688 288.761719 110.953125 287.554688 109.378906 286.308594 C 107.804688 285.066406 106.261719 283.785156 104.746094 282.464844 C 103.234375 281.148438 101.753906 279.792969 100.304688 278.402344 C 98.855469 277.015625 97.441406 275.59375 96.0625 274.136719 C 94.683594 272.679688 93.339844 271.191406 92.027344 269.667969 C 90.71875 268.148438 89.449219 266.597656 88.214844 265.015625 C 86.976562 263.433594 85.78125 261.824219 84.625 260.183594 C 83.464844 258.546875 82.347656 256.878906 81.269531 255.1875 C 80.191406 253.496094 79.152344 251.777344 78.15625 250.035156 C 77.160156 248.292969 76.207031 246.527344 75.296875 244.742188 C 74.382812 242.953125 73.515625 241.144531 72.6875 239.316406 C 71.863281 237.488281 71.082031 235.640625 70.34375 233.773438 C 69.609375 231.90625 68.914062 230.023438 68.269531 228.125 C 67.621094 226.226562 67.019531 224.3125 66.464844 222.382812 C 65.90625 220.453125 65.398438 218.515625 64.9375 216.5625 C 64.472656 214.609375 64.058594 212.648438 63.6875 210.675781 C 63.316406 208.703125 62.996094 206.722656 62.722656 204.734375 C 62.449219 202.746094 62.21875 200.753906 62.042969 198.753906 C 61.863281 196.753906 61.730469 194.753906 61.648438 192.75 C 61.632812 192.417969 61.652344 192.089844 61.699219 191.761719 C 61.75 191.433594 61.832031 191.113281 61.945312 190.804688 C 62.0625 190.492188 62.203125 190.195312 62.375 189.914062 C 62.546875 189.628906 62.746094 189.367188 62.96875 189.121094 C 63.195312 188.878906 63.4375 188.660156 63.707031 188.464844 C 63.972656 188.265625 64.257812 188.101562 64.558594 187.960938 C 64.859375 187.820312 65.167969 187.710938 65.492188 187.632812 C 65.8125 187.554688 66.140625 187.511719 66.46875 187.496094 C 66.800781 187.480469 67.128906 187.5 67.457031 187.550781 C 67.785156 187.601562 68.105469 187.6875 68.414062 187.800781 C 68.726562 187.914062 69.023438 188.058594 69.304688 188.230469 C 69.589844 188.402344 69.851562 188.601562 70.09375 188.824219 C 70.339844 189.050781 70.558594 189.296875 70.753906 189.5625 C 70.949219 189.832031 71.113281 190.113281 71.253906 190.414062 C 71.390625 190.714844 71.5 191.027344 71.578125 191.347656 C 71.65625 191.671875 71.703125 191.996094 71.714844 192.328125 C 71.792969 194.171875 71.914062 196.015625 72.078125 197.855469 C 72.242188 199.691406 72.453125 201.527344 72.703125 203.355469 C 72.957031 205.183594 73.253906 207.003906 73.59375 208.820312 C 73.933594 210.636719 74.316406 212.441406 74.742188 214.238281 C 75.167969 216.03125 75.636719 217.816406 76.148438 219.59375 C 76.65625 221.367188 77.210938 223.125 77.804688 224.875 C 78.402344 226.621094 79.039062 228.355469 79.71875 230.070312 C 80.394531 231.789062 81.113281 233.488281 81.875 235.171875 C 82.632812 236.855469 83.433594 238.515625 84.269531 240.160156 C 85.109375 241.804688 85.988281 243.429688 86.90625 245.03125 C 87.820312 246.636719 88.777344 248.214844 89.765625 249.773438 C 90.757812 251.328125 91.789062 252.863281 92.855469 254.371094 C 93.917969 255.878906 95.019531 257.359375 96.15625 258.8125 C 97.292969 260.269531 98.460938 261.695312 99.667969 263.09375 C 100.871094 264.496094 102.109375 265.863281 103.378906 267.203125 C 104.648438 268.542969 105.949219 269.855469 107.28125 271.132812 C 108.613281 272.410156 109.976562 273.65625 111.367188 274.867188 C 112.757812 276.082031 114.179688 277.257812 115.628906 278.40625 C 117.074219 279.550781 118.550781 280.660156 120.050781 281.734375 C 121.554688 282.808594 123.078125 283.847656 124.628906 284.847656 C 126.179688 285.851562 127.753906 286.8125 129.351562 287.738281 C 130.949219 288.667969 132.566406 289.554688 134.207031 290.402344 C 135.84375 291.25 137.503906 292.0625 139.183594 292.832031 C 140.859375 293.601562 142.554688 294.328125 144.269531 295.019531 C 145.980469 295.707031 147.710938 296.355469 149.453125 296.960938 C 151.199219 297.566406 152.957031 298.132812 154.726562 298.652344 C 156.496094 299.175781 158.277344 299.65625 160.074219 300.089844 C 161.867188 300.527344 163.667969 300.921875 165.480469 301.273438 C 167.292969 301.625 169.113281 301.929688 170.941406 302.195312 C 172.769531 302.457031 174.601562 302.679688 176.441406 302.855469 C 178.277344 303.03125 180.117188 303.164062 181.960938 303.25 C 183.804688 303.339844 185.652344 303.382812 187.496094 303.382812 C 189.34375 303.382812 191.1875 303.339844 193.03125 303.25 C 194.878906 303.164062 196.71875 303.03125 198.554688 302.855469 C 200.394531 302.679688 202.226562 302.457031 204.054688 302.195312 C 205.878906 301.929688 207.699219 301.625 209.511719 301.273438 C 211.324219 300.921875 213.128906 300.527344 214.921875 300.089844 C 216.714844 299.65625 218.5 299.175781 220.269531 298.652344 C 222.039062 298.132812 223.796875 297.566406 225.542969 296.960938 C 227.285156 296.355469 229.011719 295.707031 230.726562 295.019531 C 232.4375 294.328125 234.132812 293.601562 235.8125 292.832031 C 237.492188 292.0625 239.148438 291.25 240.789062 290.402344 C 242.429688 289.554688 244.046875 288.667969 245.644531 287.738281 C 247.242188 286.8125 248.8125 285.847656 250.363281 284.847656 C 251.917969 283.847656 253.441406 282.808594 254.945312 281.734375 C 256.445312 280.660156 257.917969 279.550781 259.367188 278.40625 C 260.816406 277.257812 262.234375 276.082031 263.628906 274.867188 C 265.019531 273.65625 266.382812 272.410156 267.714844 271.132812 C 269.046875 269.855469 270.347656 268.542969 271.617188 267.203125 C 272.886719 265.863281 274.125 264.496094 275.328125 263.09375 C 276.53125 261.695312 277.703125 260.269531 278.839844 258.8125 C 279.976562 257.359375 281.078125 255.878906 282.140625 254.371094 C 283.207031 252.863281 284.234375 251.328125 285.226562 249.773438 C 286.21875 248.214844 287.175781 246.636719 288.089844 245.03125 C 289.007812 243.429688 289.886719 241.804688 290.722656 240.160156 C 291.5625 238.515625 292.363281 236.855469 293.121094 235.171875 C 293.882812 233.488281 294.601562 231.789062 295.277344 230.070312 C 295.957031 228.355469 296.59375 226.621094 297.1875 224.875 C 297.785156 223.125 298.335938 221.367188 298.847656 219.59375 C 299.359375 217.816406 299.828125 216.03125 300.253906 214.238281 C 300.679688 212.441406 301.0625 210.636719 301.402344 208.820312 C 301.742188 207.003906 302.039062 205.183594 302.292969 203.355469 C 302.542969 201.527344 302.753906 199.691406 302.917969 197.855469 C 303.082031 196.015625 303.203125 194.171875 303.28125 192.328125 C 303.292969 191.996094 303.339844 191.671875 303.417969 191.351562 C 303.496094 191.027344 303.605469 190.71875 303.742188 190.417969 C 303.882812 190.117188 304.050781 189.832031 304.246094 189.566406 C 304.441406 189.300781 304.660156 189.054688 304.902344 188.828125 C 305.144531 188.605469 305.410156 188.40625 305.691406 188.234375 C 305.972656 188.0625 306.269531 187.917969 306.582031 187.804688 C 306.890625 187.691406 307.210938 187.609375 307.539062 187.558594 C 307.863281 187.507812 308.195312 187.488281 308.523438 187.503906 C 308.855469 187.515625 309.179688 187.5625 309.503906 187.640625 C 309.824219 187.71875 310.136719 187.828125 310.433594 187.964844 C 310.734375 188.105469 311.019531 188.273438 311.285156 188.46875 C 311.554688 188.664062 311.800781 188.882812 312.023438 189.125 C 312.246094 189.371094 312.445312 189.632812 312.617188 189.914062 C 312.789062 190.199219 312.933594 190.496094 313.046875 190.804688 C 313.160156 191.117188 313.242188 191.433594 313.292969 191.761719 C 313.34375 192.089844 313.363281 192.417969 313.347656 192.75 Z M 313.347656 192.75"/><g fill="#1C2833"><use x="142.069" y="292.375" xmlns:xlink="http://www.w3.org/1999/xlink" xlink:href="#a" xlink:type="simple" xlink:actuate="onLoad" xlink:show="embed"/></g><g fill="#CD6155"><use x="162.954" y="166.447" xmlns:xlink="http://www.w3.org/1999/xlink" xlink:href="#b" xlink:type="simple" xlink:actuate="onLoad" xlink:show="embed"/></g><path stroke-linecap="round" transform="matrix(3.75 0 0 3.75 127.5 187.5)" fill="none" d="M 3.500001 0.00000328333 L 28.500003 0.00000328333" stroke="#1C2833"/><path transform="matrix(3.75 0 0 3.75 127.5 187.5)" fill="#1C2833" stroke-linejoin="round" d="M 0.500001 0.00000328333 L 2.000001 -1.499997 L 3.500001 0.00000328333 L 2.000001 1.500003 Z M 0.500001 0.00000328333" stroke="#1C2833"/><path transform="matrix(3.75 0 0 3.75 247.5 187.5)" fill="#1C2833" stroke-linejoin="round" d="M -0.499997 0.00000328333 L -1.999997 -1.499997 L -3.499997 0.00000328333 L -1.999997 1.500003 Z M -0.499997 0.00000328333" stroke="#1C2833"/></svg>